<mxfile host="app.diagrams.net" modified="2021-11-11T14:24:44.922Z" agent="5.0 (Windows)" etag="_we7DpE5UWaDKdHYlruW" version="15.7.3" type="github">
  <diagram id="C5RBs43oDa-KdzZeNtuy" name="Page-1">
    <mxGraphModel dx="2062" dy="1112" grid="1" gridSize="10" guides="1" tooltips="1" connect="1" arrows="1" fold="1" page="1" pageScale="1" pageWidth="827" pageHeight="1169" math="0" shadow="0">
      <root>
        <mxCell id="WIyWlLk6GJQsqaUBKTNV-0" />
        <mxCell id="WIyWlLk6GJQsqaUBKTNV-1" parent="WIyWlLk6GJQsqaUBKTNV-0" />
        <mxCell id="SWUnmbpUUMgqVoy9v7iv-224" style="edgeStyle=orthogonalEdgeStyle;rounded=0;orthogonalLoop=1;jettySize=auto;html=1;exitX=0.5;exitY=1;exitDx=0;exitDy=0;entryX=0.5;entryY=0;entryDx=0;entryDy=0;" edge="1" parent="WIyWlLk6GJQsqaUBKTNV-1" source="SWUnmbpUUMgqVoy9v7iv-228" target="SWUnmbpUUMgqVoy9v7iv-244">
          <mxGeometry relative="1" as="geometry">
            <Array as="points">
              <mxPoint x="800" y="198" />
              <mxPoint x="1180" y="198" />
              <mxPoint x="1180" y="160" />
              <mxPoint x="1545" y="160" />
            </Array>
          </mxGeometry>
        </mxCell>
        <mxCell id="SWUnmbpUUMgqVoy9v7iv-225" style="edgeStyle=orthogonalEdgeStyle;rounded=0;orthogonalLoop=1;jettySize=auto;html=1;exitX=0.5;exitY=1;exitDx=0;exitDy=0;entryX=0.5;entryY=0;entryDx=0;entryDy=0;" edge="1" parent="WIyWlLk6GJQsqaUBKTNV-1" source="SWUnmbpUUMgqVoy9v7iv-228" target="SWUnmbpUUMgqVoy9v7iv-235">
          <mxGeometry relative="1" as="geometry" />
        </mxCell>
        <mxCell id="SWUnmbpUUMgqVoy9v7iv-226" style="edgeStyle=orthogonalEdgeStyle;rounded=0;orthogonalLoop=1;jettySize=auto;html=1;exitX=0.5;exitY=1;exitDx=0;exitDy=0;entryX=0.5;entryY=0;entryDx=0;entryDy=0;" edge="1" parent="WIyWlLk6GJQsqaUBKTNV-1" source="SWUnmbpUUMgqVoy9v7iv-228" target="SWUnmbpUUMgqVoy9v7iv-248">
          <mxGeometry relative="1" as="geometry" />
        </mxCell>
        <mxCell id="SWUnmbpUUMgqVoy9v7iv-227" style="edgeStyle=orthogonalEdgeStyle;rounded=0;orthogonalLoop=1;jettySize=auto;html=1;exitX=0.5;exitY=1;exitDx=0;exitDy=0;entryX=0.5;entryY=0;entryDx=0;entryDy=0;" edge="1" parent="WIyWlLk6GJQsqaUBKTNV-1" source="SWUnmbpUUMgqVoy9v7iv-228" target="SWUnmbpUUMgqVoy9v7iv-239">
          <mxGeometry relative="1" as="geometry" />
        </mxCell>
        <mxCell id="SWUnmbpUUMgqVoy9v7iv-228" value="SimplePanel.tsx" style="swimlane;fontStyle=2;align=center;verticalAlign=top;childLayout=stackLayout;horizontal=1;startSize=26;horizontalStack=0;resizeParent=1;resizeLast=0;collapsible=1;marginBottom=0;rounded=0;shadow=0;strokeWidth=1;fillColor=#ffe6cc;strokeColor=#d79b00;gradientColor=#ffffff;swimlaneFillColor=default;" vertex="1" parent="WIyWlLk6GJQsqaUBKTNV-1">
          <mxGeometry x="720" y="40" width="160" height="138" as="geometry">
            <mxRectangle x="230" y="140" width="160" height="26" as="alternateBounds" />
          </mxGeometry>
        </mxCell>
        <mxCell id="SWUnmbpUUMgqVoy9v7iv-229" value="" style="line;html=1;strokeWidth=1;align=left;verticalAlign=middle;spacingTop=-1;spacingLeft=3;spacingRight=3;rotatable=0;labelPosition=right;points=[];portConstraint=eastwest;" vertex="1" parent="SWUnmbpUUMgqVoy9v7iv-228">
          <mxGeometry y="26" width="160" height="8" as="geometry" />
        </mxCell>
        <mxCell id="SWUnmbpUUMgqVoy9v7iv-230" style="edgeStyle=orthogonalEdgeStyle;orthogonalLoop=1;jettySize=auto;html=1;exitX=0.5;exitY=1;exitDx=0;exitDy=0;entryX=0.5;entryY=1;entryDx=0;entryDy=0;curved=1;" edge="1" parent="WIyWlLk6GJQsqaUBKTNV-1" source="SWUnmbpUUMgqVoy9v7iv-231" target="SWUnmbpUUMgqVoy9v7iv-290">
          <mxGeometry relative="1" as="geometry">
            <Array as="points">
              <mxPoint x="300" y="410" />
              <mxPoint x="430" y="410" />
              <mxPoint x="430" y="860" />
              <mxPoint x="282" y="860" />
            </Array>
          </mxGeometry>
        </mxCell>
        <mxCell id="SWUnmbpUUMgqVoy9v7iv-231" value="drilldown" style="swimlane;startSize=23;fillColor=#dae8fc;strokeColor=#6c8ebf;gradientColor=#ffffff;swimlaneFillColor=default;" vertex="1" parent="WIyWlLk6GJQsqaUBKTNV-1">
          <mxGeometry x="230" y="200" width="140" height="200" as="geometry" />
        </mxCell>
        <mxCell id="SWUnmbpUUMgqVoy9v7iv-232" style="edgeStyle=orthogonalEdgeStyle;orthogonalLoop=1;jettySize=auto;html=1;exitX=0.5;exitY=1;exitDx=0;exitDy=0;entryX=0.5;entryY=1;entryDx=0;entryDy=0;curved=1;" edge="1" parent="WIyWlLk6GJQsqaUBKTNV-1" source="SWUnmbpUUMgqVoy9v7iv-233" target="SWUnmbpUUMgqVoy9v7iv-292">
          <mxGeometry relative="1" as="geometry">
            <Array as="points">
              <mxPoint x="335" y="940" />
              <mxPoint x="232" y="940" />
            </Array>
          </mxGeometry>
        </mxCell>
        <mxCell id="SWUnmbpUUMgqVoy9v7iv-233" value="Dropdown" style="swimlane;fillColor=#dae8fc;strokeColor=#6c8ebf;gradientColor=#ffffff;swimlaneFillColor=default;" vertex="1" parent="WIyWlLk6GJQsqaUBKTNV-1">
          <mxGeometry x="270" y="490" width="130" height="200" as="geometry" />
        </mxCell>
        <mxCell id="SWUnmbpUUMgqVoy9v7iv-234" style="edgeStyle=orthogonalEdgeStyle;orthogonalLoop=1;jettySize=auto;html=1;exitX=0.5;exitY=1;exitDx=0;exitDy=0;entryX=0.5;entryY=1;entryDx=0;entryDy=0;curved=1;" edge="1" parent="WIyWlLk6GJQsqaUBKTNV-1" source="SWUnmbpUUMgqVoy9v7iv-235" target="SWUnmbpUUMgqVoy9v7iv-292">
          <mxGeometry relative="1" as="geometry">
            <Array as="points">
              <mxPoint x="670" y="480" />
              <mxPoint x="670" y="980" />
              <mxPoint x="232" y="980" />
            </Array>
          </mxGeometry>
        </mxCell>
        <mxCell id="SWUnmbpUUMgqVoy9v7iv-235" value="DropdownFilter" style="swimlane;fillColor=#dae8fc;strokeColor=#6c8ebf;gradientColor=#ffffff;swimlaneFillColor=default;" vertex="1" parent="WIyWlLk6GJQsqaUBKTNV-1">
          <mxGeometry x="620" y="280" width="120" height="200" as="geometry" />
        </mxCell>
        <mxCell id="SWUnmbpUUMgqVoy9v7iv-236" style="edgeStyle=orthogonalEdgeStyle;orthogonalLoop=1;jettySize=auto;html=1;exitX=0.5;exitY=1;exitDx=0;exitDy=0;entryX=0.5;entryY=1;entryDx=0;entryDy=0;curved=1;" edge="1" parent="WIyWlLk6GJQsqaUBKTNV-1" source="SWUnmbpUUMgqVoy9v7iv-239" target="SWUnmbpUUMgqVoy9v7iv-290">
          <mxGeometry relative="1" as="geometry">
            <Array as="points">
              <mxPoint x="480" y="910" />
              <mxPoint x="282" y="910" />
            </Array>
          </mxGeometry>
        </mxCell>
        <mxCell id="SWUnmbpUUMgqVoy9v7iv-237" style="edgeStyle=orthogonalEdgeStyle;orthogonalLoop=1;jettySize=auto;html=1;exitX=0.5;exitY=1;exitDx=0;exitDy=0;entryX=0.5;entryY=1;entryDx=0;entryDy=0;curved=1;" edge="1" parent="WIyWlLk6GJQsqaUBKTNV-1" source="SWUnmbpUUMgqVoy9v7iv-239" target="SWUnmbpUUMgqVoy9v7iv-291">
          <mxGeometry relative="1" as="geometry">
            <Array as="points">
              <mxPoint x="480" y="1050" />
              <mxPoint x="182" y="1050" />
            </Array>
          </mxGeometry>
        </mxCell>
        <mxCell id="SWUnmbpUUMgqVoy9v7iv-238" style="edgeStyle=orthogonalEdgeStyle;orthogonalLoop=1;jettySize=auto;html=1;exitX=0.25;exitY=1;exitDx=0;exitDy=0;entryX=0.75;entryY=0;entryDx=0;entryDy=0;rounded=0;" edge="1" parent="WIyWlLk6GJQsqaUBKTNV-1" source="SWUnmbpUUMgqVoy9v7iv-239" target="SWUnmbpUUMgqVoy9v7iv-233">
          <mxGeometry relative="1" as="geometry" />
        </mxCell>
        <mxCell id="SWUnmbpUUMgqVoy9v7iv-239" value="GraphUI" style="swimlane;fillColor=#dae8fc;strokeColor=#6c8ebf;gradientColor=#ffffff;swimlaneFillColor=default;" vertex="1" parent="WIyWlLk6GJQsqaUBKTNV-1">
          <mxGeometry x="420" y="210" width="120" height="200" as="geometry" />
        </mxCell>
        <mxCell id="SWUnmbpUUMgqVoy9v7iv-240" style="edgeStyle=orthogonalEdgeStyle;curved=1;orthogonalLoop=1;jettySize=auto;html=1;exitX=0.25;exitY=1;exitDx=0;exitDy=0;entryX=0.5;entryY=0;entryDx=0;entryDy=0;" edge="1" parent="WIyWlLk6GJQsqaUBKTNV-1" source="SWUnmbpUUMgqVoy9v7iv-244" target="SWUnmbpUUMgqVoy9v7iv-267">
          <mxGeometry relative="1" as="geometry">
            <Array as="points">
              <mxPoint x="1513" y="610" />
              <mxPoint x="1042" y="610" />
            </Array>
          </mxGeometry>
        </mxCell>
        <mxCell id="SWUnmbpUUMgqVoy9v7iv-241" style="edgeStyle=orthogonalEdgeStyle;orthogonalLoop=1;jettySize=auto;html=1;exitX=0.75;exitY=1;exitDx=0;exitDy=0;entryX=0.5;entryY=0;entryDx=0;entryDy=0;rounded=0;" edge="1" parent="WIyWlLk6GJQsqaUBKTNV-1" source="SWUnmbpUUMgqVoy9v7iv-244" target="SWUnmbpUUMgqVoy9v7iv-266">
          <mxGeometry relative="1" as="geometry" />
        </mxCell>
        <mxCell id="SWUnmbpUUMgqVoy9v7iv-242" style="edgeStyle=orthogonalEdgeStyle;rounded=0;orthogonalLoop=1;jettySize=auto;html=1;exitX=0.5;exitY=1;exitDx=0;exitDy=0;entryX=0.5;entryY=0;entryDx=0;entryDy=0;" edge="1" parent="WIyWlLk6GJQsqaUBKTNV-1" source="SWUnmbpUUMgqVoy9v7iv-244" target="SWUnmbpUUMgqVoy9v7iv-261">
          <mxGeometry relative="1" as="geometry">
            <Array as="points">
              <mxPoint x="1545" y="430" />
              <mxPoint x="1435" y="430" />
              <mxPoint x="1435" y="290" />
              <mxPoint x="1335" y="290" />
            </Array>
          </mxGeometry>
        </mxCell>
        <mxCell id="SWUnmbpUUMgqVoy9v7iv-243" style="edgeStyle=orthogonalEdgeStyle;rounded=0;orthogonalLoop=1;jettySize=auto;html=1;exitX=0;exitY=1;exitDx=0;exitDy=0;entryX=0.5;entryY=0;entryDx=0;entryDy=0;" edge="1" parent="WIyWlLk6GJQsqaUBKTNV-1" source="SWUnmbpUUMgqVoy9v7iv-244" target="SWUnmbpUUMgqVoy9v7iv-254">
          <mxGeometry relative="1" as="geometry">
            <Array as="points">
              <mxPoint x="1490" y="370" />
              <mxPoint x="1490" y="410" />
              <mxPoint x="1450" y="410" />
              <mxPoint x="1450" y="260" />
              <mxPoint x="955" y="260" />
            </Array>
          </mxGeometry>
        </mxCell>
        <mxCell id="SWUnmbpUUMgqVoy9v7iv-244" value="canvas" style="swimlane;startSize=23;fillColor=#dae8fc;strokeColor=#6c8ebf;gradientColor=#ffffff;swimlaneFillColor=default;" vertex="1" parent="WIyWlLk6GJQsqaUBKTNV-1">
          <mxGeometry x="1480" y="170" width="130" height="200" as="geometry" />
        </mxCell>
        <mxCell id="SWUnmbpUUMgqVoy9v7iv-245" style="edgeStyle=orthogonalEdgeStyle;orthogonalLoop=1;jettySize=auto;html=1;exitX=0.5;exitY=1;exitDx=0;exitDy=0;entryX=0.5;entryY=1;entryDx=0;entryDy=0;curved=1;" edge="1" parent="WIyWlLk6GJQsqaUBKTNV-1" source="SWUnmbpUUMgqVoy9v7iv-248" target="SWUnmbpUUMgqVoy9v7iv-291">
          <mxGeometry relative="1" as="geometry">
            <Array as="points">
              <mxPoint x="80" y="400" />
              <mxPoint x="80" y="910" />
              <mxPoint x="182" y="910" />
            </Array>
          </mxGeometry>
        </mxCell>
        <mxCell id="SWUnmbpUUMgqVoy9v7iv-246" style="edgeStyle=orthogonalEdgeStyle;orthogonalLoop=1;jettySize=auto;html=1;exitX=0.75;exitY=1;exitDx=0;exitDy=0;entryX=0.25;entryY=0;entryDx=0;entryDy=0;rounded=0;" edge="1" parent="WIyWlLk6GJQsqaUBKTNV-1" source="SWUnmbpUUMgqVoy9v7iv-248" target="SWUnmbpUUMgqVoy9v7iv-233">
          <mxGeometry relative="1" as="geometry" />
        </mxCell>
        <mxCell id="SWUnmbpUUMgqVoy9v7iv-247" style="edgeStyle=orthogonalEdgeStyle;curved=1;orthogonalLoop=1;jettySize=auto;html=1;exitX=0.25;exitY=1;exitDx=0;exitDy=0;entryX=0.5;entryY=0;entryDx=0;entryDy=0;" edge="1" parent="WIyWlLk6GJQsqaUBKTNV-1" source="SWUnmbpUUMgqVoy9v7iv-248" target="SWUnmbpUUMgqVoy9v7iv-290">
          <mxGeometry relative="1" as="geometry">
            <Array as="points">
              <mxPoint x="75" y="740" />
              <mxPoint x="180" y="740" />
              <mxPoint x="180" y="750" />
              <mxPoint x="282" y="750" />
            </Array>
          </mxGeometry>
        </mxCell>
        <mxCell id="SWUnmbpUUMgqVoy9v7iv-248" value="NodeMetric" style="swimlane;fillColor=#dae8fc;strokeColor=#6c8ebf;gradientColor=#ffffff;swimlaneFillColor=default;" vertex="1" parent="WIyWlLk6GJQsqaUBKTNV-1">
          <mxGeometry x="40" y="200" width="140" height="200" as="geometry" />
        </mxCell>
        <mxCell id="SWUnmbpUUMgqVoy9v7iv-249" style="edgeStyle=orthogonalEdgeStyle;rounded=0;orthogonalLoop=1;jettySize=auto;html=1;exitX=0.5;exitY=1;exitDx=0;exitDy=0;entryX=0.5;entryY=0;entryDx=0;entryDy=0;" edge="1" parent="WIyWlLk6GJQsqaUBKTNV-1" source="SWUnmbpUUMgqVoy9v7iv-254" target="SWUnmbpUUMgqVoy9v7iv-274">
          <mxGeometry relative="1" as="geometry">
            <Array as="points">
              <mxPoint x="950" y="510" />
              <mxPoint x="950" y="605" />
              <mxPoint x="1220" y="605" />
            </Array>
          </mxGeometry>
        </mxCell>
        <mxCell id="SWUnmbpUUMgqVoy9v7iv-250" style="edgeStyle=orthogonalEdgeStyle;rounded=0;orthogonalLoop=1;jettySize=auto;html=1;exitX=0.5;exitY=1;exitDx=0;exitDy=0;entryX=0.5;entryY=0;entryDx=0;entryDy=0;" edge="1" parent="WIyWlLk6GJQsqaUBKTNV-1" source="SWUnmbpUUMgqVoy9v7iv-254" target="SWUnmbpUUMgqVoy9v7iv-276">
          <mxGeometry relative="1" as="geometry">
            <Array as="points">
              <mxPoint x="970" y="510" />
              <mxPoint x="970" y="590" />
              <mxPoint x="1290" y="590" />
            </Array>
          </mxGeometry>
        </mxCell>
        <mxCell id="SWUnmbpUUMgqVoy9v7iv-251" style="edgeStyle=orthogonalEdgeStyle;rounded=0;orthogonalLoop=1;jettySize=auto;html=1;exitX=0.5;exitY=1;exitDx=0;exitDy=0;entryX=0.5;entryY=0;entryDx=0;entryDy=0;" edge="1" parent="WIyWlLk6GJQsqaUBKTNV-1" source="SWUnmbpUUMgqVoy9v7iv-254" target="SWUnmbpUUMgqVoy9v7iv-272">
          <mxGeometry relative="1" as="geometry">
            <Array as="points">
              <mxPoint x="930" y="510" />
              <mxPoint x="930" y="620" />
              <mxPoint x="1150" y="620" />
            </Array>
          </mxGeometry>
        </mxCell>
        <mxCell id="SWUnmbpUUMgqVoy9v7iv-252" style="edgeStyle=orthogonalEdgeStyle;curved=1;orthogonalLoop=1;jettySize=auto;html=1;entryX=0;entryY=1;entryDx=0;entryDy=0;" edge="1" parent="WIyWlLk6GJQsqaUBKTNV-1" target="SWUnmbpUUMgqVoy9v7iv-268">
          <mxGeometry relative="1" as="geometry">
            <mxPoint x="910" y="510" as="sourcePoint" />
            <Array as="points">
              <mxPoint x="900" y="1119" />
            </Array>
          </mxGeometry>
        </mxCell>
        <mxCell id="SWUnmbpUUMgqVoy9v7iv-253" style="edgeStyle=orthogonalEdgeStyle;orthogonalLoop=1;jettySize=auto;html=1;exitX=0.75;exitY=1;exitDx=0;exitDy=0;entryX=0.5;entryY=0;entryDx=0;entryDy=0;rounded=0;" edge="1" parent="WIyWlLk6GJQsqaUBKTNV-1" source="SWUnmbpUUMgqVoy9v7iv-254" target="SWUnmbpUUMgqVoy9v7iv-278">
          <mxGeometry relative="1" as="geometry">
            <Array as="points">
              <mxPoint x="983" y="580" />
              <mxPoint x="1360" y="580" />
            </Array>
          </mxGeometry>
        </mxCell>
        <mxCell id="SWUnmbpUUMgqVoy9v7iv-254" value="Overview" style="swimlane;fillColor=#dae8fc;strokeColor=#6c8ebf;gradientColor=#ffffff;swimlaneFillColor=default;" vertex="1" parent="WIyWlLk6GJQsqaUBKTNV-1">
          <mxGeometry x="900" y="310" width="110" height="200" as="geometry">
            <mxRectangle x="900" y="400" width="90" height="23" as="alternateBounds" />
          </mxGeometry>
        </mxCell>
        <mxCell id="SWUnmbpUUMgqVoy9v7iv-255" style="edgeStyle=orthogonalEdgeStyle;rounded=0;orthogonalLoop=1;jettySize=auto;html=1;exitX=0.5;exitY=1;exitDx=0;exitDy=0;entryX=0.5;entryY=0;entryDx=0;entryDy=0;" edge="1" parent="WIyWlLk6GJQsqaUBKTNV-1" source="SWUnmbpUUMgqVoy9v7iv-261" target="SWUnmbpUUMgqVoy9v7iv-282">
          <mxGeometry relative="1" as="geometry">
            <Array as="points">
              <mxPoint x="1350" y="510" />
              <mxPoint x="1350" y="620" />
              <mxPoint x="1660" y="620" />
            </Array>
          </mxGeometry>
        </mxCell>
        <mxCell id="SWUnmbpUUMgqVoy9v7iv-256" style="edgeStyle=orthogonalEdgeStyle;rounded=0;orthogonalLoop=1;jettySize=auto;html=1;exitX=0.5;exitY=1;exitDx=0;exitDy=0;entryX=0.5;entryY=0;entryDx=0;entryDy=0;" edge="1" parent="WIyWlLk6GJQsqaUBKTNV-1" source="SWUnmbpUUMgqVoy9v7iv-261" target="SWUnmbpUUMgqVoy9v7iv-283">
          <mxGeometry relative="1" as="geometry">
            <Array as="points">
              <mxPoint x="1300" y="510" />
              <mxPoint x="1300" y="590" />
              <mxPoint x="1780" y="590" />
            </Array>
          </mxGeometry>
        </mxCell>
        <mxCell id="SWUnmbpUUMgqVoy9v7iv-257" style="edgeStyle=orthogonalEdgeStyle;rounded=0;orthogonalLoop=1;jettySize=auto;html=1;exitX=0.5;exitY=1;exitDx=0;exitDy=0;entryX=0.5;entryY=0;entryDx=0;entryDy=0;" edge="1" parent="WIyWlLk6GJQsqaUBKTNV-1" source="SWUnmbpUUMgqVoy9v7iv-261" target="SWUnmbpUUMgqVoy9v7iv-284">
          <mxGeometry relative="1" as="geometry">
            <Array as="points">
              <mxPoint x="1320" y="510" />
              <mxPoint x="1320" y="570" />
              <mxPoint x="1430" y="570" />
            </Array>
          </mxGeometry>
        </mxCell>
        <mxCell id="SWUnmbpUUMgqVoy9v7iv-258" style="edgeStyle=orthogonalEdgeStyle;rounded=0;orthogonalLoop=1;jettySize=auto;html=1;exitX=0.5;exitY=1;exitDx=0;exitDy=0;entryX=0.5;entryY=0;entryDx=0;entryDy=0;" edge="1" parent="WIyWlLk6GJQsqaUBKTNV-1" source="SWUnmbpUUMgqVoy9v7iv-261" target="SWUnmbpUUMgqVoy9v7iv-285">
          <mxGeometry relative="1" as="geometry">
            <Array as="points">
              <mxPoint x="1380" y="510" />
              <mxPoint x="1380" y="550" />
              <mxPoint x="1495" y="550" />
            </Array>
          </mxGeometry>
        </mxCell>
        <mxCell id="SWUnmbpUUMgqVoy9v7iv-259" style="edgeStyle=orthogonalEdgeStyle;rounded=0;orthogonalLoop=1;jettySize=auto;html=1;exitX=0.75;exitY=1;exitDx=0;exitDy=0;entryX=0.25;entryY=0;entryDx=0;entryDy=0;" edge="1" parent="WIyWlLk6GJQsqaUBKTNV-1" source="SWUnmbpUUMgqVoy9v7iv-261" target="SWUnmbpUUMgqVoy9v7iv-280">
          <mxGeometry relative="1" as="geometry">
            <Array as="points">
              <mxPoint x="1363" y="560" />
              <mxPoint x="1565" y="560" />
            </Array>
          </mxGeometry>
        </mxCell>
        <mxCell id="SWUnmbpUUMgqVoy9v7iv-260" style="edgeStyle=orthogonalEdgeStyle;curved=1;orthogonalLoop=1;jettySize=auto;html=1;exitX=0.5;exitY=1;exitDx=0;exitDy=0;entryX=0;entryY=0.5;entryDx=0;entryDy=0;" edge="1" parent="WIyWlLk6GJQsqaUBKTNV-1" source="SWUnmbpUUMgqVoy9v7iv-261" target="SWUnmbpUUMgqVoy9v7iv-268">
          <mxGeometry relative="1" as="geometry">
            <Array as="points">
              <mxPoint x="980" y="510" />
              <mxPoint x="980" y="1090" />
            </Array>
          </mxGeometry>
        </mxCell>
        <mxCell id="SWUnmbpUUMgqVoy9v7iv-261" value="Item" style="swimlane;fillColor=#dae8fc;strokeColor=#6c8ebf;rounded=0;gradientColor=#ffffff;swimlaneFillColor=default;" vertex="1" parent="WIyWlLk6GJQsqaUBKTNV-1">
          <mxGeometry x="1280" y="310" width="110" height="200" as="geometry" />
        </mxCell>
        <mxCell id="SWUnmbpUUMgqVoy9v7iv-262" style="edgeStyle=orthogonalEdgeStyle;rounded=0;orthogonalLoop=1;jettySize=auto;html=1;exitX=0.5;exitY=1;exitDx=0;exitDy=0;entryX=0.5;entryY=0;entryDx=0;entryDy=0;" edge="1" parent="WIyWlLk6GJQsqaUBKTNV-1" source="SWUnmbpUUMgqVoy9v7iv-266" target="SWUnmbpUUMgqVoy9v7iv-287">
          <mxGeometry relative="1" as="geometry" />
        </mxCell>
        <mxCell id="SWUnmbpUUMgqVoy9v7iv-263" style="edgeStyle=orthogonalEdgeStyle;rounded=0;orthogonalLoop=1;jettySize=auto;html=1;exitX=0.5;exitY=1;exitDx=0;exitDy=0;entryX=0.5;entryY=0;entryDx=0;entryDy=0;" edge="1" parent="WIyWlLk6GJQsqaUBKTNV-1" source="SWUnmbpUUMgqVoy9v7iv-266" target="SWUnmbpUUMgqVoy9v7iv-289">
          <mxGeometry relative="1" as="geometry">
            <Array as="points">
              <mxPoint x="1870" y="500" />
              <mxPoint x="1870" y="600" />
              <mxPoint x="1940" y="600" />
            </Array>
          </mxGeometry>
        </mxCell>
        <mxCell id="SWUnmbpUUMgqVoy9v7iv-264" style="edgeStyle=orthogonalEdgeStyle;orthogonalLoop=1;jettySize=auto;html=1;exitX=0.25;exitY=1;exitDx=0;exitDy=0;entryX=0.75;entryY=0;entryDx=0;entryDy=0;rounded=0;" edge="1" parent="WIyWlLk6GJQsqaUBKTNV-1" source="SWUnmbpUUMgqVoy9v7iv-266" target="SWUnmbpUUMgqVoy9v7iv-282">
          <mxGeometry relative="1" as="geometry" />
        </mxCell>
        <mxCell id="SWUnmbpUUMgqVoy9v7iv-265" style="edgeStyle=orthogonalEdgeStyle;rounded=0;orthogonalLoop=1;jettySize=auto;html=1;exitX=0.75;exitY=1;exitDx=0;exitDy=0;entryX=0.75;entryY=0;entryDx=0;entryDy=0;" edge="1" parent="WIyWlLk6GJQsqaUBKTNV-1" source="SWUnmbpUUMgqVoy9v7iv-266" target="SWUnmbpUUMgqVoy9v7iv-280">
          <mxGeometry relative="1" as="geometry" />
        </mxCell>
        <mxCell id="SWUnmbpUUMgqVoy9v7iv-266" value="outside" style="swimlane;startSize=23;fillColor=#dae8fc;strokeColor=#6c8ebf;gradientColor=#ffffff;swimlaneFillColor=default;" vertex="1" parent="WIyWlLk6GJQsqaUBKTNV-1">
          <mxGeometry x="1770" y="300" width="110" height="200" as="geometry" />
        </mxCell>
        <mxCell id="SWUnmbpUUMgqVoy9v7iv-267" value="Stage" style="ellipse;whiteSpace=wrap;html=1;fillColor=#fff2cc;strokeColor=#d6b656;" vertex="1" parent="WIyWlLk6GJQsqaUBKTNV-1">
          <mxGeometry x="1000" y="940" width="83" height="80" as="geometry" />
        </mxCell>
        <mxCell id="SWUnmbpUUMgqVoy9v7iv-268" value="Layer" style="ellipse;whiteSpace=wrap;html=1;fillColor=#fff2cc;strokeColor=#d6b656;" vertex="1" parent="WIyWlLk6GJQsqaUBKTNV-1">
          <mxGeometry x="1000" y="1050" width="83" height="80" as="geometry" />
        </mxCell>
        <mxCell id="SWUnmbpUUMgqVoy9v7iv-269" value="Text" style="ellipse;whiteSpace=wrap;html=1;fillColor=#fff2cc;strokeColor=#d6b656;" vertex="1" parent="WIyWlLk6GJQsqaUBKTNV-1">
          <mxGeometry x="1126" y="940" width="83" height="80" as="geometry" />
        </mxCell>
        <mxCell id="SWUnmbpUUMgqVoy9v7iv-270" value="Rect" style="ellipse;whiteSpace=wrap;html=1;fillColor=#fff2cc;strokeColor=#d6b656;" vertex="1" parent="WIyWlLk6GJQsqaUBKTNV-1">
          <mxGeometry x="1136" y="1050" width="83" height="80" as="geometry" />
        </mxCell>
        <mxCell id="SWUnmbpUUMgqVoy9v7iv-271" style="edgeStyle=orthogonalEdgeStyle;curved=1;orthogonalLoop=1;jettySize=auto;html=1;exitX=0.5;exitY=1;exitDx=0;exitDy=0;entryX=0;entryY=0.5;entryDx=0;entryDy=0;" edge="1" parent="WIyWlLk6GJQsqaUBKTNV-1" source="SWUnmbpUUMgqVoy9v7iv-272" target="SWUnmbpUUMgqVoy9v7iv-270">
          <mxGeometry relative="1" as="geometry" />
        </mxCell>
        <mxCell id="SWUnmbpUUMgqVoy9v7iv-272" value="Rect&#xa;Overview&#xa;" style="swimlane;startSize=60;fillColor=#dae8fc;strokeColor=#6c8ebf;gradientColor=#ffffff;swimlaneFillColor=default;" vertex="1" parent="WIyWlLk6GJQsqaUBKTNV-1">
          <mxGeometry x="1120" y="700" width="60" height="120" as="geometry">
            <mxRectangle x="710" y="660" width="90" height="60" as="alternateBounds" />
          </mxGeometry>
        </mxCell>
        <mxCell id="SWUnmbpUUMgqVoy9v7iv-273" style="edgeStyle=orthogonalEdgeStyle;curved=1;orthogonalLoop=1;jettySize=auto;html=1;exitX=0.25;exitY=1;exitDx=0;exitDy=0;entryX=0;entryY=0;entryDx=0;entryDy=0;" edge="1" parent="WIyWlLk6GJQsqaUBKTNV-1" source="SWUnmbpUUMgqVoy9v7iv-274" target="SWUnmbpUUMgqVoy9v7iv-269">
          <mxGeometry relative="1" as="geometry" />
        </mxCell>
        <mxCell id="SWUnmbpUUMgqVoy9v7iv-274" value="Text&#xa;Overview&#xa;" style="swimlane;startSize=60;fillColor=#dae8fc;strokeColor=#6c8ebf;gradientColor=#ffffff;swimlaneFillColor=default;" vertex="1" parent="WIyWlLk6GJQsqaUBKTNV-1">
          <mxGeometry x="1190" y="700" width="60" height="120" as="geometry" />
        </mxCell>
        <mxCell id="SWUnmbpUUMgqVoy9v7iv-275" style="edgeStyle=orthogonalEdgeStyle;curved=1;orthogonalLoop=1;jettySize=auto;html=1;exitX=0.5;exitY=1;exitDx=0;exitDy=0;entryX=1;entryY=0;entryDx=0;entryDy=0;" edge="1" parent="WIyWlLk6GJQsqaUBKTNV-1" source="SWUnmbpUUMgqVoy9v7iv-276" target="SWUnmbpUUMgqVoy9v7iv-270">
          <mxGeometry relative="1" as="geometry">
            <Array as="points">
              <mxPoint x="1290" y="1062" />
            </Array>
          </mxGeometry>
        </mxCell>
        <mxCell id="SWUnmbpUUMgqVoy9v7iv-276" value="Node" style="swimlane;startSize=60;fillColor=#dae8fc;strokeColor=#6c8ebf;gradientColor=#ffffff;swimlaneFillColor=default;" vertex="1" parent="WIyWlLk6GJQsqaUBKTNV-1">
          <mxGeometry x="1260" y="700" width="60" height="120" as="geometry" />
        </mxCell>
        <mxCell id="SWUnmbpUUMgqVoy9v7iv-277" style="edgeStyle=orthogonalEdgeStyle;curved=1;orthogonalLoop=1;jettySize=auto;html=1;exitX=0.5;exitY=1;exitDx=0;exitDy=0;entryX=1;entryY=0;entryDx=0;entryDy=0;" edge="1" parent="WIyWlLk6GJQsqaUBKTNV-1" source="SWUnmbpUUMgqVoy9v7iv-278" target="SWUnmbpUUMgqVoy9v7iv-269">
          <mxGeometry relative="1" as="geometry">
            <Array as="points">
              <mxPoint x="1360" y="920" />
              <mxPoint x="1197" y="920" />
            </Array>
          </mxGeometry>
        </mxCell>
        <mxCell id="SWUnmbpUUMgqVoy9v7iv-278" value="Node&#xa;Text&#xa;" style="swimlane;startSize=60;swimlaneFillColor=default;strokeColor=#6c8ebf;fillColor=#dae8fc;gradientColor=#ffffff;" vertex="1" parent="WIyWlLk6GJQsqaUBKTNV-1">
          <mxGeometry x="1330" y="700" width="60" height="120" as="geometry" />
        </mxCell>
        <mxCell id="SWUnmbpUUMgqVoy9v7iv-279" style="edgeStyle=orthogonalEdgeStyle;orthogonalLoop=1;jettySize=auto;html=1;exitX=0.25;exitY=1;exitDx=0;exitDy=0;entryX=1;entryY=0.5;entryDx=0;entryDy=0;curved=1;" edge="1" parent="WIyWlLk6GJQsqaUBKTNV-1" source="SWUnmbpUUMgqVoy9v7iv-280" target="SWUnmbpUUMgqVoy9v7iv-270">
          <mxGeometry relative="1" as="geometry" />
        </mxCell>
        <mxCell id="SWUnmbpUUMgqVoy9v7iv-280" value="Rect&#xa;Item&#xa;" style="swimlane;startSize=60;fillColor=#dae8fc;strokeColor=#6c8ebf;gradientColor=#ffffff;swimlaneFillColor=default;" vertex="1" parent="WIyWlLk6GJQsqaUBKTNV-1">
          <mxGeometry x="1550" y="700" width="60" height="120" as="geometry" />
        </mxCell>
        <mxCell id="SWUnmbpUUMgqVoy9v7iv-281" style="edgeStyle=orthogonalEdgeStyle;curved=1;orthogonalLoop=1;jettySize=auto;html=1;exitX=0.25;exitY=1;exitDx=0;exitDy=0;entryX=0.5;entryY=0;entryDx=0;entryDy=0;" edge="1" parent="WIyWlLk6GJQsqaUBKTNV-1" source="SWUnmbpUUMgqVoy9v7iv-282" target="SWUnmbpUUMgqVoy9v7iv-269">
          <mxGeometry relative="1" as="geometry" />
        </mxCell>
        <mxCell id="SWUnmbpUUMgqVoy9v7iv-282" value="Text&#xa;item&#xa;" style="swimlane;startSize=60;swimlaneFillColor=default;fillColor=#dae8fc;strokeColor=#6c8ebf;gradientColor=#ffffff;" vertex="1" parent="WIyWlLk6GJQsqaUBKTNV-1">
          <mxGeometry x="1630" y="700" width="60" height="120" as="geometry" />
        </mxCell>
        <mxCell id="SWUnmbpUUMgqVoy9v7iv-283" value="image&#xa;Metric&#xa;" style="swimlane;startSize=60;swimlaneFillColor=default;fillColor=#dae8fc;strokeColor=#6c8ebf;gradientColor=#ffffff;" vertex="1" parent="WIyWlLk6GJQsqaUBKTNV-1">
          <mxGeometry x="1750" y="700" width="60" height="120" as="geometry" />
        </mxCell>
        <mxCell id="SWUnmbpUUMgqVoy9v7iv-284" value="App&#xa;Metric&#xa;" style="swimlane;startSize=60;fillColor=#dae8fc;strokeColor=#6c8ebf;gradientColor=#ffffff;swimlaneFillColor=default;" vertex="1" parent="WIyWlLk6GJQsqaUBKTNV-1">
          <mxGeometry x="1400" y="700" width="60" height="120" as="geometry" />
        </mxCell>
        <mxCell id="SWUnmbpUUMgqVoy9v7iv-285" value="inf&#xa;Metric&#xa;" style="swimlane;startSize=60;fillColor=#dae8fc;strokeColor=#6c8ebf;gradientColor=#ffffff;swimlaneFillColor=default;" vertex="1" parent="WIyWlLk6GJQsqaUBKTNV-1">
          <mxGeometry x="1465" y="700" width="60" height="120" as="geometry" />
        </mxCell>
        <mxCell id="SWUnmbpUUMgqVoy9v7iv-286" style="edgeStyle=orthogonalEdgeStyle;curved=1;orthogonalLoop=1;jettySize=auto;html=1;exitX=0.5;exitY=1;exitDx=0;exitDy=0;entryX=1;entryY=0.5;entryDx=0;entryDy=0;" edge="1" parent="WIyWlLk6GJQsqaUBKTNV-1" source="SWUnmbpUUMgqVoy9v7iv-287" target="SWUnmbpUUMgqVoy9v7iv-269">
          <mxGeometry relative="1" as="geometry" />
        </mxCell>
        <mxCell id="SWUnmbpUUMgqVoy9v7iv-287" value="Text&#xa;Outside&#xa;" style="swimlane;startSize=60;fillColor=#dae8fc;strokeColor=#6c8ebf;gradientColor=#ffffff;swimlaneFillColor=default;" vertex="1" parent="WIyWlLk6GJQsqaUBKTNV-1">
          <mxGeometry x="1830" y="700" width="60" height="120" as="geometry" />
        </mxCell>
        <mxCell id="SWUnmbpUUMgqVoy9v7iv-288" style="edgeStyle=orthogonalEdgeStyle;orthogonalLoop=1;jettySize=auto;html=1;exitX=0.5;exitY=1;exitDx=0;exitDy=0;entryX=0.5;entryY=1;entryDx=0;entryDy=0;curved=1;" edge="1" parent="WIyWlLk6GJQsqaUBKTNV-1" source="SWUnmbpUUMgqVoy9v7iv-289" target="SWUnmbpUUMgqVoy9v7iv-270">
          <mxGeometry relative="1" as="geometry">
            <Array as="points">
              <mxPoint x="1940" y="1170" />
              <mxPoint x="1178" y="1170" />
            </Array>
          </mxGeometry>
        </mxCell>
        <mxCell id="SWUnmbpUUMgqVoy9v7iv-289" value="Rect&#xa;Outside&#xa;" style="swimlane;startSize=60;fillColor=#dae8fc;strokeColor=#6c8ebf;gradientColor=#ffffff;swimlaneFillColor=default;" vertex="1" parent="WIyWlLk6GJQsqaUBKTNV-1">
          <mxGeometry x="1910" y="700" width="60" height="120" as="geometry" />
        </mxCell>
        <mxCell id="SWUnmbpUUMgqVoy9v7iv-290" value="Button" style="ellipse;whiteSpace=wrap;html=1;fillColor=#ffe6cc;strokeColor=#d79b00;" vertex="1" parent="WIyWlLk6GJQsqaUBKTNV-1">
          <mxGeometry x="240" y="760" width="83" height="80" as="geometry" />
        </mxCell>
        <mxCell id="SWUnmbpUUMgqVoy9v7iv-291" value="&lt;div&gt;Graph&lt;/div&gt;" style="ellipse;whiteSpace=wrap;html=1;fillColor=#ffe6cc;strokeColor=#d79b00;" vertex="1" parent="WIyWlLk6GJQsqaUBKTNV-1">
          <mxGeometry x="140" y="760" width="83" height="80" as="geometry" />
        </mxCell>
        <mxCell id="SWUnmbpUUMgqVoy9v7iv-292" value="&lt;div&gt;Select&lt;/div&gt;" style="ellipse;whiteSpace=wrap;html=1;fillColor=#ffe6cc;strokeColor=#d79b00;" vertex="1" parent="WIyWlLk6GJQsqaUBKTNV-1">
          <mxGeometry x="190" y="840" width="83" height="80" as="geometry" />
        </mxCell>
      </root>
    </mxGraphModel>
  </diagram>
</mxfile>
